/* XPM */
static char *en3[] = {
/* columns rows colors chars-per-pixel */
"39 39 8 1 ",
"  c #4E8F27",
". c #2F2F2E",
"X c #D67941",
"o c #9D5021",
"O c white",
"+ c gray72",
"@ c #3B3B39",
"# c #4F4F4E",
/* pixels */
"                                       ",
"                                       ",
"                                       ",
"                                       ",
"                                       ",
"                                       ",
"                                       ",
"                                       ",
"                                       ",
"                                       ",
"                                       ",
"                                       ",
"                        ..             ",
"                   ...  .X.            ",
"                   .oX. .OX.           ",
"                    ......X.           ",
"           .        .ooXXXX.           ",
"          .+.       ..ooo.X.           ",
"         .+O.      .oo..XXXX.          ",
"         .oO...    .+++OOOOO.          ",
"         .ooXXX......+++OOO.           ",
"         .ooXXo.ooooo......            ",
"          .ooo.ooooXXXXOO.             ",
"           ....oooXXXo++..             ",
"              .o....X...o.             ",
"              .@.@..#. .#.             ",
"              .. .  ..  ..             ",
"                                       ",
"                                       ",
"                                       ",
"                                       ",
"                                       ",
"                                       ",
"                                       ",
"                                       ",
"                                       ",
"                                       ",
"                                       ",
"                                       "
};
