/* XPM */
static char *_952d2e2c2334d23cbff5329a65e783dnPxLLX7tZJsZq5B5[] = {
/* columns rows colors chars-per-pixel */
"39 39 8 1 ",
"  c #4E8F27",
". c #2F2F2E",
"X c #9D5021",
"o c #D67941",
"O c white",
"+ c gray72",
"@ c #3B3B39",
"# c #4F4F4E",
/* pixels */
"                                       ",
"                                       ",
"                                       ",
"                                       ",
"                                       ",
"                                       ",
"                                       ",
"                                       ",
"                                       ",
"                                       ",
"                                       ",
"                                       ",
"                        ..             ",
"                   ... .Xo.            ",
"                   .Xo. .Oo.           ",
"                    .....Oo.           ",
"                    .XXXXoo.           ",
"            ...    .XXX.ooo.           ",
"           .ooo.  ...XXooooo.          ",
"          .ooooo. .+++OOOOOO.          ",
"         .++XXoo.....++OOO..           ",
"         .++..X.XXXXX.....             ",
"         .+.  .XXXXooooOO.             ",
"         ..   .XXXoooX++..             ",
"              .X....o...X.             ",
"              .@.@..#. .#.             ",
"              .. .  ..  ..             ",
"                                       ",
"                                       ",
"                                       ",
"                                       ",
"                                       ",
"                                       ",
"                                       ",
"                                       ",
"                                       ",
"                                       ",
"                                       ",
"                                       "
};
