/* XPM */
static char *b8da8bbd4ce240a6bd0ab0780ffd837dhJ0ayN6xusiglls6[] = {
/* columns rows colors chars-per-pixel */
"39 39 5 1 ",
"  c #4E8F27",
". c black",
"X c #4F2C14",
"o c #885B39",
"O c #D78244",
/* pixels */
"                                       ",
"                                       ",
"                                       ",
"                                       ",
"                                       ",
"                                       ",
"                                       ",
"                                       ",
"                                       ",
"                    ....               ",
"                    .XX.               ",
"                    .oX........        ",
"                   ..oOOOOOOoo..       ",
"                  ..OOOO..OOooo.       ",
"                 ..OOOOOOOOOOoo.       ",
"           .......OOOOOOOOOOOOo.       ",
"          ..OOOOOOOOOOOOOOOOOOo.       ",
"          .OOOOOOOOOOOOO........       ",
"          .OOOooOOOOOOO..              ",
"          .OOOOOOOOOOOO.               ",
"          .OooOOooOOOOO.               ",
"         ..OOOOOOOOOOO..               ",
"         .OOOOOOOOOOOO.                ",
"        ..XOOOO....OOX.                ",
"        .XXXO... ...XX..               ",
"        .XXX...  ...XXX.               ",
"        ..XX.... ....XX.               ",
"         .XX. .. .. ..X.               ",
"         ....        ...               ",
"                                       ",
"                                       ",
"                                       ",
"                                       ",
"                                       ",
"                                       ",
"                                       ",
"                                       ",
"                                       ",
"                                       "
};
