/* XPM */
static char *_00eae2b9dfd45add349453e3555f8eeHioVtpxuOeqceWH5[] = {
/* columns rows colors chars-per-pixel */
"39 39 5 1 ",
"  c #4E8F27",
". c black",
"X c #4F2C14",
"o c #D78244",
"O c #885B39",
/* pixels */
"                                       ",
"                                       ",
"                                       ",
"                                       ",
"                                       ",
"                                       ",
"                                       ",
"                                       ",
"                                       ",
"                ...  ...               ",
"                .X.  .X.               ",
"                .X....X.               ",
"                .ooOOoo.               ",
"                ..OOOO..               ",
"                .oOOOOo.               ",
"                .oOOOOo.               ",
"                ........               ",
"               ..oooooo..              ",
"               .oooooooo.              ",
"               .oooooooo.              ",
"               .oooooooo.              ",
"               .oooooooo.              ",
"               .XooooooX.              ",
"               .XX....XX.              ",
"               .XX....XX.              ",
"               ..X.. .XX.              ",
"                ...  .XX.              ",
"                ...  .X..              ",
"                     ...               ",
"                                       ",
"                                       ",
"                                       ",
"                                       ",
"                                       ",
"                                       ",
"                                       ",
"                                       ",
"                                       ",
"                                       "
};
