/* XPM */
static char *_ff442cb7d8a4266d187c29b6621334bSfI6siWKfEDVsw2k[] = {
/* columns rows colors chars-per-pixel */
"39 39 5 1 ",
"  c #4E8F27",
". c black",
"X c #885B39",
"o c #D78244",
"O c #4F2C14",
/* pixels */
"                                       ",
"                                       ",
"                                       ",
"                                       ",
"                                       ",
"                                       ",
"                                       ",
"                                       ",
"                                       ",
"                ...  ...               ",
"                .X.  .X.               ",
"                .X....X.               ",
"                .oooooo.               ",
"                .oooooo.               ",
"                .oooooo.               ",
"                .oooooo.               ",
"                ........               ",
"               ..oooooo..              ",
"               .oooooooo.              ",
"               .oooooooo.              ",
"               .XooooooX.              ",
"               .oooooooo.              ",
"               .OooooooO.              ",
"               .OO....OO.              ",
"               .OO....OO.              ",
"               ..O.. .OO.              ",
"                ...  .OO.              ",
"                ...  .O..              ",
"                     ...               ",
"                                       ",
"                                       ",
"                                       ",
"                                       ",
"                                       ",
"                                       ",
"                                       ",
"                                       ",
"                                       ",
"                                       "
};
